# xmcd CD database file
#
# Track frame offsets:
#	150
#	25832
#	42939
#	84721
#	124178
#	145185
#	175042
#	199574
#	219081
#	231388
#
# Disc length: 3342 seconds
#
# Revision: 0
# Processed by: cddbd v1.5.2PL0 Copyright (c) Steve Scherf et al.
# Submitted via: CDex 1.78
#
DISCID=820d0c0a
DTITLE=octurn - the tibetan monks of gyuto - tantric college cd1
DYEAR=2015
DGENRE=Jazz
TTITLE0=dalai lama long life
TTITLE1=hypnose
TTITLE2=mahakala tea puja
TTITLE3=lhasa
TTITLE4=chance factors
TTITLE5=heart sutra (day 2)
TTITLE6=shrivatsa
TTITLE7=heart sutra (day 1)
TTITLE8=secret assembly
TTITLE9=dhyana mudra
EXTD=YEAR: 2015
EXTT0=
EXTT1=
EXTT2=
EXTT3=
EXTT4=
EXTT5=
EXTT6=
EXTT7=
EXTT8=
EXTT9=
PLAYORDER=
